<svg width="25" height="24" viewBox="0 0 25 24" fill="none" xmlns="http://www.w3.org/2000/svg">
<g clip-path="url(#clip0_2_2157)">
<path d="M2.80248 8.58712V22.125C2.80248 22.7453 3.31438 23.25 3.94341 23.25C4.57244 23.25 5.08433 22.7453 5.08433 22.125V8.58712C5.95106 8.41275 6.60557 7.65562 6.60557 6.75V1.875C6.60557 1.25475 6.09367 0.75 5.46464 0.75C5.17142 0.75 4.90635 0.862875 4.70403 1.0425C4.5017 0.862875 4.23663 0.75 3.94341 0.75C3.65019 0.75 3.38512 0.862875 3.18279 1.0425C2.98047 0.862875 2.71539 0.75 2.42218 0.75C1.79315 0.75 1.28125 1.25475 1.28125 1.875V6.75C1.28125 7.65562 1.93576 8.41313 2.80248 8.58712ZM2.04187 1.875C2.04187 1.668 2.21224 1.5 2.42218 1.5C2.63211 1.5 2.80248 1.668 2.80248 1.875V6H3.5631V1.875C3.5631 1.668 3.73348 1.5 3.94341 1.5C4.15334 1.5 4.32372 1.668 4.32372 1.875V6H5.08433V1.875C5.08433 1.668 5.25471 1.5 5.46464 1.5C5.67457 1.5 5.84495 1.668 5.84495 1.875V6.75C5.84495 7.37025 5.33306 7.875 4.70403 7.875C4.49372 7.875 4.32372 8.04262 4.32372 8.25V22.125C4.32372 22.332 4.15334 22.5 3.94341 22.5C3.73348 22.5 3.5631 22.332 3.5631 22.125V8.25C3.5631 8.04262 3.3931 7.875 3.18279 7.875C2.55376 7.875 2.04187 7.37025 2.04187 6.75V1.875Z" fill="black"/>
<path d="M23.9329 0.814582C23.8279 0.744832 23.6948 0.730582 23.5784 0.776707C22.2751 1.29083 21.3662 2.46383 21.2057 3.83821L20.2994 11.582C20.2876 11.6813 20.3169 11.7807 20.3801 11.8591L21.818 13.6317V22.1251C21.818 22.7453 22.3299 23.2501 22.9589 23.2501C23.588 23.2501 24.0998 22.7453 24.0998 22.1251V1.12508C24.0998 1.00058 24.0371 0.884332 23.9329 0.814582ZM23.3392 22.1251C23.3392 22.3321 23.1689 22.5001 22.9589 22.5001C22.749 22.5001 22.5786 22.3321 22.5786 22.1251V13.5001C22.5786 13.4146 22.5493 13.3324 22.4953 13.2657L21.073 11.5126L21.961 3.92408C22.0667 3.01846 22.5794 2.22158 23.3392 1.73858V22.1251Z" fill="black"/>
<path d="M9.26782 9H10.0284C10.0284 7.13888 11.5637 5.625 13.4512 5.625V4.875C11.1446 4.875 9.26782 6.72563 9.26782 9Z" fill="black"/>
<path d="M15.1245 5.21803C14.8553 5.10178 14.5738 5.01403 14.2871 4.95703L14.1365 5.69241C14.3704 5.73891 14.6005 5.81053 14.8203 5.90503L15.1245 5.21803Z" fill="black"/>
<path d="M5.84497 21C5.84497 21.6202 6.35687 22.125 6.9859 22.125H15.733C16.2365 22.8146 17.1797 23.25 18.205 23.25C19.7779 23.25 21.0573 22.2409 21.0573 21C21.0573 19.7591 19.7779 18.75 18.205 18.75C17.1797 18.75 16.2365 19.1854 15.733 19.875H6.9859C6.35687 19.875 5.84497 20.3798 5.84497 21ZM6.9859 20.625H15.9403C16.0768 20.625 16.2031 20.5526 16.2707 20.4352C16.5982 19.8671 17.3573 19.5 18.205 19.5C19.3581 19.5 20.2967 20.1727 20.2967 21C20.2967 21.8273 19.3581 22.5 18.205 22.5C17.3573 22.5 16.5982 22.1329 16.2707 21.5648C16.2031 21.4474 16.0768 21.375 15.9403 21.375H6.9859C6.77597 21.375 6.60559 21.207 6.60559 21C6.60559 20.793 6.77597 20.625 6.9859 20.625Z" fill="black"/>
<path d="M6.64257 17.0359C6.70532 17.1664 6.83881 17.25 6.98599 17.25H20.6771C20.8243 17.25 20.9578 17.1664 21.0205 17.0359C21.0836 16.9046 21.0642 16.7498 20.9714 16.6376L18.2077 13.3069C19.308 12.126 19.9165 10.6125 19.9165 9C19.9165 5.48475 17.0162 2.625 13.4512 2.625C9.88622 2.625 6.98599 5.48475 6.98599 9C6.98599 10.815 7.76296 12.5081 9.11647 13.7153L6.69163 16.6376C6.59845 16.7498 6.57944 16.9046 6.64257 17.0359ZM7.7466 9C7.7466 5.89838 10.3057 3.375 13.4512 3.375C16.5968 3.375 19.1559 5.89838 19.1559 9C19.1559 10.3864 18.6466 11.691 17.7225 12.7219L14.1263 8.388C13.9814 8.21362 13.6821 8.21362 13.5372 8.388L9.59794 13.1348C8.42089 12.0716 7.7466 10.5885 7.7466 9ZM13.8315 9.21712L19.8746 16.5H7.78844L13.8315 9.21712Z" fill="black"/>
</g>
<defs>
<clipPath id="clip0_2_2157">
<rect width="24.3397" height="24" fill="white" transform="translate(0.520752)"/>
</clipPath>
</defs>
</svg>
