<svg width="26" height="24" viewBox="0 0 26 24" fill="none" xmlns="http://www.w3.org/2000/svg">
<g clip-path="url(#clip0_2_2150)">
<path d="M24.6485 0.496657C24.0704 -0.0734835 23.071 -0.129546 21.7579 0.33447C20.8549 0.653688 19.9078 1.18863 19.4546 1.63544L15.8155 5.22372L3.83668 3.3685L0.788696 6.37394L10.7481 10.2205L7.55034 13.3735L3.01174 13.6356L0.835474 15.7815L5.7609 18.125L4.38104 19.4856L5.39076 20.4812L6.76876 19.1224L9.14773 23.9768L11.3235 21.8314L11.5893 17.3561L14.8407 14.1501L18.7409 23.9685L21.7889 20.9631L19.9077 9.15372L23.4936 5.61789C23.9467 5.17113 24.4893 4.23719 24.813 3.34675C25.2836 2.05234 25.2267 1.0667 24.6485 0.496657ZM3.3418 5.84781L4.33279 4.87066L14.5663 6.45555L11.8502 9.1338L3.3418 5.84781ZM20.2655 20.474L19.2745 21.4511L15.9427 13.0636L18.6585 10.3857L20.2655 20.474ZM23.4688 2.87177C23.1959 3.62233 22.745 4.36488 22.4839 4.62241L10.1956 16.7392L9.92979 21.2145L9.55913 21.58L7.83814 18.0682L9.07951 16.8441L8.0698 15.8485L6.83047 17.0704L3.26721 15.3751L3.63744 15.01L8.17604 14.748L20.4643 2.63111C20.7256 2.37353 21.4786 1.92906 22.2398 1.65995C23.1039 1.35452 23.5623 1.41686 23.6388 1.49228C23.7152 1.56766 23.7785 2.01963 23.4688 2.87177Z" fill="black"/>
</g>
<defs>
<clipPath id="clip0_2_2150">
<rect width="24.3397" height="24" fill="white" transform="translate(0.788696)"/>
</clipPath>
</defs>
</svg>
